<?xml version="1.0" standalone="no"?>
<!DOCTYPE svg PUBLIC "-//W3C//DTD SVG 20010904//EN"
 "http://www.w3.org/TR/2001/REC-SVG-20010904/DTD/svg10.dtd">
<svg version="1.0" xmlns="http://www.w3.org/2000/svg"
 width="512.000000pt" height="512.000000pt" viewBox="0 0 512.000000 512.000000"
 preserveAspectRatio="xMidYMid meet">

<g transform="translate(0.000000,512.000000) scale(0.100000,-0.100000)"
fill="#000000" stroke="none">
<path d="M2342 5109 c-397 -53 -727 -261 -867 -544 -69 -139 -70 -150 -70
-638 l0 -439 33 -29 c35 -31 94 -39 122 -16 46 37 45 26 50 496 5 411 7 450
24 491 138 323 540 514 1005 478 151 -11 284 -47 416 -112 215 -106 345 -253
384 -434 7 -34 11 -194 11 -453 0 -426 2 -443 49 -469 39 -20 91 -12 122 19
l29 29 0 435 c0 396 -2 440 -19 509 -83 322 -415 585 -838 663 -107 20 -351
27 -451 14z"/>
<path d="M465 3848 c-11 -6 -28 -20 -37 -32 -17 -20 -18 -134 -18 -1886 0
-1752 1 -1866 18 -1886 9 -12 27 -27 39 -33 31 -16 4155 -16 4186 0 12 6 30
21 39 33 17 20 18 134 18 1886 0 1752 -1 1866 -18 1886 -34 43 -46 44 -427 44
-307 0 -371 -2 -395 -15 -37 -19 -50 -43 -50 -93 0 -33 6 -45 31 -66 l31 -26
314 0 314 0 0 -1730 0 -1730 -1950 0 -1950 0 0 1730 0 1730 296 0 c183 0 303
4 315 10 22 12 49 61 49 89 0 33 -20 67 -50 84 -25 15 -69 17 -382 17 -237 -1
-360 -4 -373 -12z"/>
<path d="M1765 3851 c-48 -20 -72 -74 -55 -125 23 -70 -21 -66 798 -66 l739 0
26 25 c14 14 28 37 31 51 9 34 -21 95 -54 111 -19 10 -190 13 -745 12 -396 0
-729 -4 -740 -8z"/>
<path d="M1302 3355 c-47 -21 -67 -71 -53 -137 14 -64 31 -95 78 -140 51 -49
105 -70 179 -70 132 -1 234 87 259 223 15 84 -55 154 -130 129 -38 -12 -56
-36 -73 -97 -13 -45 -36 -59 -77 -49 -19 5 -28 18 -41 61 -22 78 -77 109 -142
80z"/>
<path d="M3363 3363 c-36 -7 -73 -59 -73 -103 0 -157 156 -282 312 -249 56 12
109 42 145 80 60 66 83 194 42 238 -61 65 -160 38 -175 -48 -8 -47 -30 -71
-65 -71 -31 0 -59 31 -59 67 0 49 -70 96 -127 86z"/>
</g>
</svg>
