<?xml version="1.0" standalone="no"?>
<!DOCTYPE svg PUBLIC "-//W3C//DTD SVG 20010904//EN"
 "http://www.w3.org/TR/2001/REC-SVG-20010904/DTD/svg10.dtd">
<svg version="1.0" xmlns="http://www.w3.org/2000/svg"
 width="858.000000pt" height="378.000000pt" viewBox="0 0 858.000000 378.000000"
 preserveAspectRatio="xMidYMid meet">

<g transform="translate(0.000000,378.000000) scale(0.100000,-0.100000)"
fill="#000000" stroke="none">
<path d="M2536 3126 c-67 -25 -130 -76 -185 -149 -200 -268 -342 -830 -345
-1364 l-1 -212 -35 -36 c-54 -57 -172 -131 -246 -155 -131 -44 -251 -7 -303
95 -71 137 -15 416 98 492 40 27 93 30 116 6 18 -17 18 -25 -1 -155 -6 -42 -4
-49 21 -73 24 -25 32 -27 78 -22 70 6 109 51 131 147 39 168 -44 311 -196 340
-123 23 -282 -35 -386 -139 -172 -173 -232 -497 -131 -708 61 -127 163 -199
327 -229 81 -14 95 -14 181 0 147 26 289 94 387 188 l31 29 31 -53 c77 -138
218 -198 380 -164 89 19 136 42 229 112 l71 55 48 -51 c92 -98 238 -144 372
-116 175 36 306 159 369 346 l22 65 71 7 c62 7 177 31 248 53 19 7 22 4 22
-22 0 -51 38 -182 71 -244 86 -161 270 -243 466 -206 89 17 166 52 229 103 44
35 54 35 54 -3 0 -13 6 -39 14 -58 19 -44 67 -59 138 -44 80 18 144 87 163
179 45 217 224 557 289 548 19 -3 21 -9 20 -68 -1 -36 -12 -117 -24 -180 -15
-74 -24 -152 -24 -220 -1 -97 1 -109 27 -155 35 -63 60 -81 138 -101 115 -29
252 14 380 120 l66 54 44 -45 c78 -80 152 -113 297 -133 146 -20 284 12 441
101 135 78 249 204 358 396 19 35 39 63 44 63 14 0 99 -119 125 -175 13 -28
25 -66 26 -85 l3 -35 -87 4 c-131 5 -190 -24 -208 -103 -26 -118 77 -211 235
-211 106 1 166 25 239 99 81 80 111 155 111 271 0 99 -21 145 -131 295 -130
177 -136 201 -75 334 45 99 47 121 16 142 -36 24 -174 16 -213 -12 -26 -19
-63 -83 -111 -194 -100 -229 -206 -405 -306 -506 -132 -133 -359 -200 -485
-143 -50 22 -90 56 -90 74 0 7 44 27 98 45 190 62 296 140 354 258 31 62 33
73 33 167 -1 112 -12 148 -65 209 -121 137 -380 117 -551 -44 -71 -67 -121
-148 -156 -255 -21 -65 -26 -102 -27 -198 l-2 -118 -54 -54 c-82 -83 -141
-104 -180 -65 -34 34 -29 122 24 375 34 165 49 282 41 332 -13 89 -87 133
-187 112 -160 -34 -301 -176 -421 -427 l-52 -107 -3 80 c-5 134 0 150 79 240
145 165 288 361 362 495 179 325 186 674 15 787 -57 38 -159 40 -233 4 -154
-76 -294 -331 -390 -711 -34 -136 -57 -268 -90 -526 -3 -22 -10 -141 -14 -264
l-9 -222 -62 -63 c-76 -77 -139 -112 -213 -121 -105 -12 -182 28 -228 118 -37
73 -64 373 -40 458 l7 25 199 5 c176 5 206 8 247 27 56 26 80 59 85 121 8 81
-2 87 -164 89 -76 2 -142 3 -147 3 -4 0 19 29 52 64 33 36 75 86 92 111 147
214 185 528 82 680 -36 52 -82 75 -153 75 -155 0 -309 -162 -419 -439 -39 -97
-90 -273 -105 -356 -3 -22 -11 -61 -17 -87 l-10 -48 -67 0 c-125 0 -161 -30
-161 -133 0 -85 18 -101 119 -105 l81 -4 0 -57 c0 -31 -4 -61 -8 -67 -10 -16
-212 -56 -263 -52 l-42 3 -17 70 c-22 95 -53 155 -113 221 -58 64 -101 88
-194 110 -157 36 -337 -32 -453 -172 -88 -107 -132 -243 -135 -413 l-1 -114
-51 -47 c-62 -57 -108 -80 -177 -87 -77 -8 -122 16 -152 81 -34 73 -31 96 24
173 278 394 469 841 503 1181 23 223 -22 398 -118 466 -51 35 -135 45 -197 22z
m78 -239 c19 -26 21 -41 20 -165 0 -205 -43 -382 -156 -647 -62 -144 -177
-365 -190 -365 -20 0 0 267 37 485 72 422 182 737 252 723 9 -2 25 -16 37 -31z
m2749 15 c54 -60 39 -259 -34 -440 -54 -137 -236 -431 -258 -418 -4 3 -1 47 6
98 48 342 146 682 217 753 30 30 47 31 69 7z m-876 -162 c20 -32 26 -122 13
-199 -24 -140 -96 -285 -195 -390 -35 -36 -66 -64 -68 -61 -8 7 28 213 59 337
25 104 61 209 90 265 34 65 78 86 101 48z m1898 -926 c40 -16 57 -105 31 -167
-28 -67 -148 -151 -245 -172 l-34 -7 6 75 c5 72 41 171 79 217 43 52 110 74
163 54z m-3173 -102 c4 -72 11 -101 37 -154 17 -36 47 -80 66 -97 39 -34 44
-61 20 -118 -25 -60 -65 -104 -113 -125 -151 -67 -258 81 -232 319 16 146 102
261 196 263 20 0 22 -7 26 -88z"/>
</g>
</svg>
